<svg width="20" height="20" viewBox="0 0 20 20" fill="none" xmlns="http://www.w3.org/2000/svg">
<path d="M18.6736 13.031C17.0369 13.6892 15.2427 13.8518 13.5143 13.4987C11.7858 13.1456 10.1993 12.2923 8.95181 11.0448C7.70436 9.79738 6.85103 8.21081 6.49791 6.48236C6.14478 4.7539 6.30743 2.95977 6.96563 1.323C5.02734 2.10373 3.421 3.53439 2.42196 5.36972C1.42292 7.20505 1.09342 9.33074 1.48995 11.3824C1.88647 13.434 2.98432 15.2839 4.59529 16.6148C6.20626 17.9457 8.23002 18.6747 10.3196 18.677C12.1166 18.6771 13.8724 18.1394 15.3612 17.1332C16.85 16.127 18.0036 14.6983 18.6736 13.031Z" stroke="#2F3240" stroke-width="2" stroke-linecap="round" stroke-linejoin="round"/>
</svg>
