<svg width="21" height="20" viewBox="0 0 21 20" fill="none" xmlns="http://www.w3.org/2000/svg">
<path d="M10.6736 1V2M10.6736 18V19M19.6736 10H18.6736M2.67365 10H1.67365M17.0376 16.364L16.3306 15.657M5.01664 4.343L4.30965 3.636M17.0376 3.636L16.3306 4.343M5.01664 15.657L4.30965 16.364M14.6736 10C14.6736 11.0609 14.2522 12.0783 13.5021 12.8284C12.7519 13.5786 11.7345 14 10.6736 14C9.61278 14 8.59536 13.5786 7.84522 12.8284C7.09507 12.0783 6.67365 11.0609 6.67365 10C6.67365 8.93913 7.09507 7.92172 7.84522 7.17157C8.59536 6.42143 9.61278 6 10.6736 6C11.7345 6 12.7519 6.42143 13.5021 7.17157C14.2522 7.92172 14.6736 8.93913 14.6736 10Z" stroke="#2F3240" stroke-width="2" stroke-linecap="round" stroke-linejoin="round"/>
</svg>
